<!DOCTYPE svg PUBLIC "-//W3C//DTD SVG 1.1//EN" "http://www.w3.org/Graphics/SVG/1.1/DTD/svg11.dtd">
<!-- Uploaded to: SVG Repo, www.svgrepo.com, Transformed by: SVG Repo Mixer Tools -->
<svg fill="#060044" version="1.1" id="Capa_1" xmlns="http://www.w3.org/2000/svg" xmlns:xlink="http://www.w3.org/1999/xlink" width="800px" height="800px" viewBox="-11.38 -11.38 51.21 51.21" xml:space="preserve" stroke="#060044" stroke-width="0.00028451">
<g id="SVGRepo_bgCarrier" stroke-width="0">
<path transform="translate(-11.38, -11.38), scale(3.200625)" fill="#7ed0ec" d="M9.166.33a2.25 2.25 0 00-2.332 0l-5.25 3.182A2.25 2.25 0 00.5 5.436v5.128a2.25 2.25 0 001.084 1.924l5.25 3.182a2.25 2.25 0 002.332 0l5.25-3.182a2.25 2.25 0 001.084-1.924V5.436a2.25 2.25 0 00-1.084-1.924L9.166.33z" strokewidth="0"/>
</g>
<g id="SVGRepo_tracerCarrier" stroke-linecap="round" stroke-linejoin="round"/>
<g id="SVGRepo_iconCarrier"> <g> <g> <path d="M19.656,26.874v-0.812V23.86l0.58-0.581h6.715c0.828,0,1.5-0.673,1.5-1.5V1.577c0-0.828-0.672-1.5-1.5-1.5H1.5 c-0.828,0-1.5,0.672-1.5,1.5v20.202c0,0.827,0.672,1.5,1.5,1.5h7.815l0.608,0.756v2.026v0.812c0,0.828,0.672,1.5,1.5,1.5h6.733 C18.984,28.374,19.656,27.702,19.656,26.874z M3,3.077h22.451v17.202h-4.377v-6.17c0-0.828-0.672-1.5-1.5-1.5 c-0.225,0-0.436,0.053-0.627,0.142v-0.325c0-0.828-0.672-1.5-1.5-1.5c-0.723,0-1.325,0.512-1.467,1.192v-0.661 c0-0.828-0.672-1.5-1.5-1.5c-0.587,0-1.089,0.341-1.336,0.831V7.646c0-0.828-0.672-1.5-1.5-1.5s-1.5,0.672-1.5,1.5v6.458 l-0.5,0.16v-0.155c0-0.828-0.672-1.5-1.5-1.5s-1.5,0.672-1.5,1.5v2.216v3.105c0,0.153,0.031,0.303,0.076,0.445 c0.01,0.032,0.02,0.062,0.031,0.094c0.042,0.108,0.095,0.213,0.161,0.31H2.999L3,3.077L3,3.077z"/> </g> </g> </g>
</svg>