<!DOCTYPE svg PUBLIC "-//W3C//DTD SVG 1.1//EN" "http://www.w3.org/Graphics/SVG/1.1/DTD/svg11.dtd">
<!-- Uploaded to: SVG Repo, www.svgrepo.com, Transformed by: SVG Repo Mixer Tools -->
<svg width="800px" height="800px" viewBox="-9.6 -9.6 67.20 67.20" fill="none" xmlns="http://www.w3.org/2000/svg">
<g id="SVGRepo_bgCarrier" stroke-width="0">
<path transform="translate(-9.6, -9.6), scale(4.2)" fill="#7ed0ec" d="M9.166.33a2.25 2.25 0 00-2.332 0l-5.25 3.182A2.25 2.25 0 00.5 5.436v5.128a2.25 2.25 0 001.084 1.924l5.25 3.182a2.25 2.25 0 002.332 0l5.25-3.182a2.25 2.25 0 001.084-1.924V5.436a2.25 2.25 0 00-1.084-1.924L9.166.33z" strokewidth="0"/>
</g>
<g id="SVGRepo_tracerCarrier" stroke-linecap="round" stroke-linejoin="round"/>
<g id="SVGRepo_iconCarrier"> <path d="M36 33L42 4C42 4 31.5 6 31.5 10C31.5 12.5 35.5 14 34 15.5C32.5 17 27 18.5 27 22.5C27 25 28.6406 26.8594 27 28.5C25.5 30 24 29.2143 21.5 28.5C18.7 27.7 13 27 11 27.5C9 28 6.99997 29 7 32C7.00001 33.6492 8 35.5 10.5 36C13 36.5 16 34 20 34C24 34 29 37 32 37C35 37 36 33 36 33Z" fill="#060044" stroke="#060044" stroke-width="4" stroke-linejoin="round"/> <path d="M11 36L8 44H41L35 36" stroke="#060044" stroke-width="4" stroke-linejoin="round"/> </g>
</svg>